<?xml version="1.0" encoding="utf-8"?>
<!-- Generator: Adobe Illustrator 25.4.1, SVG Export Plug-In . SVG Version: 6.00 Build 0)  -->
<svg version="1.1" id="Layer_1" xmlns="http://www.w3.org/2000/svg" xmlns:xlink="http://www.w3.org/1999/xlink" x="0px" y="0px"
	 viewBox="0 0 1366 768" style="enable-background:new 0 0 1366 768;" xml:space="preserve">
<style type="text/css">
	.st0{fill:#EEBECE;}
</style>
<path class="st0" d="M1366,768c-9.7,0-19.4,0-29.1,0c-445.5,0-890.9,0-1336.4,0C0.3,698.9,0.2,629.9,0,560.8
	c59,53.6,116.1,83.1,154.7,99.4c34.8,14.7,81.1,33.7,144,35c31.3,0.6,68.4,1,108.2-18.8c32.5-16.2,51.5-38.1,80-71.1
	c36.4-42.1,34.1-53.7,69.6-90.5c23.6-24.4,39.4-40.8,66.2-53.3c26.9-12.6,35.2-7.5,96.6-22.6c39.6-9.7,59.7-14.8,73.3-25
	c22.4-16.7,20.7-30.5,49-85c19.2-37.1,39.3-75.1,76.3-110.9c14.8-14.3,31.7-30.3,59-41.8c28.3-11.8,52.8-12.5,77.8-13
	c16.1-0.3,44.9-0.2,93.6,10.1c82.2,17.3,93.2,33.4,132.2,30.5c20.1-1.5,50-8.3,85.5-34.8C1366,368.8,1366,568.4,1366,768z"/>
</svg>
