<?xml version="1.0" encoding="utf-8"?>
<!-- Generator: Adobe Illustrator 25.4.1, SVG Export Plug-In . SVG Version: 6.00 Build 0)  -->
<svg version="1.1" id="Layer_1" xmlns="http://www.w3.org/2000/svg" xmlns:xlink="http://www.w3.org/1999/xlink" x="0px" y="0px"
	 viewBox="0 0 1366 768" style="enable-background:new 0 0 1366 768;" xml:space="preserve">
<style type="text/css">
	.st0{fill:#FF8787;}
</style>
<path class="st0" d="M767.6,564.3c16.8-8.1,26.4-20.3,31.8-27.3c3.2-4.2,15.4-20.7,20.3-46c3.2-16.9,1.6-29.4-1.7-52.2
	c-5.2-36.3-10.2-35.5-12.9-60.8c-1.6-14.7-4.8-43,6.6-73.5c8.4-22.5,15.7-22.5,19.9-40.9s3.9-47.9-11.3-64.1
	c-30.3-32.3-111.8-4-158.4,30.6c-9.5,7.1-36.5,28.4-57,65.9c-7.9,14.4-28.1,52.6-24.8,104.1c2.1,32.6,12.8,56.4,17.8,67.3
	c14.5,31.5,33.8,51.9,44.3,61.8c17,16.1,36.5,34.5,67.8,40.6C720.1,571.8,743.5,576,767.6,564.3z"/>
<path class="st0" d="M1391.5,583.5"/>
</svg>
