<?xml version="1.0" encoding="utf-8"?>
<!-- Generator: Adobe Illustrator 25.4.1, SVG Export Plug-In . SVG Version: 6.00 Build 0)  -->
<svg version="1.1" id="Layer_1" xmlns="http://www.w3.org/2000/svg" xmlns:xlink="http://www.w3.org/1999/xlink" x="0px" y="0px"
	 viewBox="0 0 1366 768" style="enable-background:new 0 0 1366 768;" xml:space="preserve">
<style type="text/css">
	.st0{fill:#FF8787;}
</style>
<path class="st0" d="M860.4,236.3c-14.3,2.8-24.1,10.4-29.6,14.7c-3.3,2.6-16,13-25.1,32c-6.1,12.7-7.5,22.9-10,41.6
	c-4,29.8-0.1,30.3-3.5,50.9c-2,12-5.7,35-20.8,56.6c-11.1,16-16.6,14.4-23.7,28c-7.1,13.6-13.3,37-5.4,53.1
	c15.7,32,82.6,27.2,124.9,9.9c8.6-3.5,33.4-14.6,56.8-39.8c9-9.7,32.4-35.5,41-76.9c5.5-26.2,2.7-47.3,1.3-57
	c-4-28.1-14.1-48.3-19.7-58.4c-9.2-16.4-19.8-35.2-41.8-46.7C897.5,240.7,881,232.3,860.4,236.3z"/>
<path class="st0" d="M1391.5,583.5"/>
</svg>
